<svg xmlns="http://www.w3.org/2000/svg" version="1.1" xmlns:xlink="http://www.w3.org/1999/xlink" width="2000" height="571" viewBox="0 0 2000 571"><svg xml:space="preserve" width="2000" height="571" data-version="2" data-id="lg_ixPjbDTHK9oMgi3NO7" viewBox="0 0 508 571" x="0" y="0"><rect width="100%" height="100%" fill="transparent"></rect><rect width="425.05" height="478.12" x="-212.53" y="-239.06" fill="#528265" rx="12" ry="12" transform="translate(254 285.5)scale(1.1713)"></rect><rect width="392.53" height="319.9" x="-196.27" y="-159.95" fill="#c9efc7" rx="12" ry="12" transform="translate(254 210.58)scale(1.1713)"></rect><path fill="#528265" d="M366.622 163.187h-13.253l-14.287 10.019h23.299c1.105 0 2.197.139 3.237.39 6.403 1.493 11.165 7.29 11.165 14.196v127.624a20.636 20.636 0 0 0 10.18-17.829V183.802c-.004-11.393-9.114-20.615-20.341-20.615"></path><path fill="#528265" d="M362.95 181.777H135.977a4.291 4.291 0 0 1 0-8.583h17.483l5.796-4.188 8.055-5.82h-28.769c-11.34 0-20.53 9.223-20.53 20.59v136c0 11.38 9.19 20.6 20.53 20.6h209.862c11.334 0 20.533-9.22 20.533-20.6v-132a6.012 6.012 0 0 0-5.989-6"></path><path fill="#528265" d="M221.95 167.158c.815-16.315 14.782-28.852 31.169-27.996 16.4.856 29.047 14.784 28.241 31.118a29.162 29.162 0 0 1-.373 3.323h46.133l29.089-21.596-58.483-77.192-133.032 98.79h57.662a29.59 29.59 0 0 1-.405-6.447m4.893-91.016-55.293 84.05 86.301-63.615z"></path><path fill="#c9efc7" d="M59.56 506.22q7.5 0 12.55.65 5.05.65 8.05 2.03 3 1.37 4.3 3.5 1.3 2.12 1.3 5.02 0 3.15-2.02 5.58-2.03 2.42-5.65 4.05-3.63 1.62-8.4 2.45-4.78.82-10.28.82-6.1 0-11.1-.9t-8.5-2.77q-3.5-1.88-5.22-4.83-1.73-2.95-1.38-7.05l21.35-1.45q-.4 1.5.23 2.5.62 1 1.97 1.5t3 .5q1 0 1.83-.15.82-.15 1.47-.45.65-.3 1-.77.35-.48.35-1.08 0-1.2-1.22-1.55-1.23-.35-3.58-.35h-1.25q-7.4 0-12.3-.77-4.9-.78-7.75-2.18-2.85-1.4-4.05-3.32-1.2-1.93-1.2-4.33 0-2.55 1.35-4.62 1.35-2.08 3.83-3.65 2.47-1.58 5.8-2.63 3.32-1.05 7.3-1.6 3.97-.55 8.32-.55 6.15 0 11.03 1.1 4.87 1.1 8.2 3.15 3.32 2.05 4.77 4.9 1.45 2.85.7 6.4l-20.65.95q.55-1.45-.05-2.37-.6-.93-1.87-1.35-1.28-.43-2.88-.43-1 0-1.8.18-.8.17-1.37.5-.58.32-.9.77-.33.45-.33.95 0 .6.4.98.4.37 1.23.52.82.15 2.17.15h.98z" paint-order="stroke"></path><rect width="52.73" height="40.5" x="-26.37" y="-20.25" fill="none" rx="0" ry="0" transform="translate(59.9 510.57)"></rect><path fill="#c9efc7" d="M119.16 491.32q4.65 0 8.13 1.28 3.47 1.27 5.75 3.45 2.27 2.17 3.42 4.92t1.15 5.7q0 3.15-1.17 5.98-1.18 2.82-3.5 5.02-2.33 2.2-5.78 3.48-3.45 1.27-8 1.27h-10.75l-.02.03q-.03.02-.05.02-.03 0-.03.05v6.3h-20.8v-37.5Zm-6.15 20.25q1.5 0 2.53-.52 1.02-.53 1.52-1.35.5-.83.5-1.68 0-.9-.5-1.67-.5-.78-1.5-1.28t-2.55-.5h-4.6q-.05 0-.07.03-.03.02-.03.07v6.85h.03q.02 0 .05.03l.02.02Z" paint-order="stroke"></path><rect width="50.1" height="37.5" x="-25.05" y="-18.75" fill="none" rx="0" ry="0" transform="translate(113.06 510.57)"></rect><path fill="#c9efc7" d="M181.21 503.92h-21.8v2.85h21.05v7.05h-21.02q-.03 0-.03.03v2.87h22.1v12.1h-42.35v-37.5h42.05Z" paint-order="stroke"></path><rect width="42.35" height="37.5" x="-21.18" y="-18.75" fill="none" rx="0" ry="0" transform="translate(160.84 510.57)"></rect><path fill="#c9efc7" d="M213.11 491.32h19.25v37.5h-23.15l-6.3-18v-.02q0-.03-.02-.03h-.05q-.03 0-.03.03v18.02h-19.25v-37.5h22.4l7.05 20.75h.08q.02 0 .02-.02v-.03Z" paint-order="stroke"></path><rect width="48.8" height="37.5" x="-24.4" y="-18.75" fill="none" rx="0" ry="0" transform="translate(208.46 510.57)"></rect><path fill="#c9efc7" d="M264.31 491.32q4.7 0 8.33 1.03 3.62 1.02 6.22 2.82 2.6 1.8 4.25 4.18 1.65 2.37 2.45 5.07.8 2.7.8 5.5 0 3.55-1.27 6.93-1.28 3.37-3.95 6.07-2.68 2.7-6.85 4.3-4.18 1.6-9.98 1.6h-29.8v-37.5Zm-4 14.4h-6v8.7h6.1q1.1 0 1.98-.35.87-.35 1.47-.95t.93-1.4q.32-.8.32-1.65 0-1.2-.57-2.2-.58-1-1.63-1.57-1.05-.58-2.6-.58" paint-order="stroke"></path><rect width="51.85" height="37.5" x="-25.93" y="-18.75" fill="none" rx="0" ry="0" transform="translate(260.94 510.57)"></rect><path fill="#c9efc7" d="M333.76 491.32h20.25q-1.1 4.7-2.17 9.38-1.08 4.67-2.18 9.37-1.1 4.7-2.17 9.38-1.08 4.67-2.13 9.37h-23.25l-3-18.8q0-.05-.02-.07l-.03-.03h-.02q-.03 0-.05.03-.03.02-.03.07l-2.95 18.8h-21.7l-1.8-7.5q-.9-3.75-1.82-7.5-.93-3.75-1.83-7.5t-1.82-7.5q-.93-3.75-1.83-7.5h21.3q.4 2.55.78 5.13.37 2.57.75 5.12.37 2.55.77 5.13.4 2.57.75 5.12h.25l2.8-20.5h15.05l2.95 20.5h.1q.75-5.15 1.53-10.25.77-5.1 1.52-10.25" paint-order="stroke"></path><rect width="68.8" height="37.5" x="-34.4" y="-18.75" fill="none" rx="0" ry="0" transform="translate(320.11 510.57)"></rect><path fill="#c9efc7" d="M355.36 528.82v-37.5h20.75v37.5Z" paint-order="stroke"></path><rect width="20.75" height="37.5" x="-10.38" y="-18.75" fill="none" rx="0" ry="0" transform="translate(366.24 510.57)"></rect><path fill="#c9efc7" d="M404.36 506.22q7.5 0 12.55.65 5.05.65 8.05 2.03 3 1.37 4.3 3.5 1.3 2.12 1.3 5.02 0 3.15-2.02 5.58-2.03 2.42-5.65 4.05-3.63 1.62-8.4 2.45-4.78.82-10.28.82-6.1 0-11.1-.9t-8.5-2.77q-3.5-1.88-5.22-4.83-1.73-2.95-1.38-7.05l21.35-1.45q-.4 1.5.23 2.5.62 1 1.97 1.5t3 .5q1 0 1.83-.15.82-.15 1.47-.45.65-.3 1-.77.35-.48.35-1.08 0-1.2-1.22-1.55-1.23-.35-3.58-.35h-1.25q-7.4 0-12.3-.77-4.9-.78-7.75-2.18-2.85-1.4-4.05-3.32-1.2-1.93-1.2-4.33 0-2.55 1.35-4.62 1.35-2.08 3.83-3.65 2.47-1.58 5.8-2.63 3.32-1.05 7.3-1.6 3.97-.55 8.32-.55 6.15 0 11.03 1.1 4.87 1.1 8.2 3.15 3.32 2.05 4.77 4.9 1.45 2.85.7 6.4l-20.65.95q.55-1.45-.05-2.37-.6-.93-1.87-1.35-1.28-.43-2.88-.43-1 0-1.8.18-.8.17-1.37.5-.58.32-.9.77-.33.45-.33.95 0 .6.4.98.4.37 1.23.52.82.15 2.17.15h.98z" paint-order="stroke"></path><rect width="52.73" height="40.5" x="-26.37" y="-20.25" fill="none" rx="0" ry="0" transform="translate(404.7 510.57)"></rect><path fill="#c9efc7" d="M474.36 503.92h-21.8v2.85h21.05v7.05h-21.02q-.03 0-.03.03v2.87h22.1v12.1h-42.35v-37.5h42.05Z" paint-order="stroke"></path><rect width="42.35" height="37.5" x="-21.18" y="-18.75" fill="none" rx="0" ry="0" transform="translate(453.99 510.57)"></rect></svg></svg>